<?xml version="1.0" encoding="UTF-8"?>
<svg width="32px" height="17px" viewBox="0 0 32 17" version="1.1" xmlns="http://www.w3.org/2000/svg" xmlns:xlink="http://www.w3.org/1999/xlink">
    <!-- Generator: Sketch 50.2 (55047) - http://www.bohemiancoding.com/sketch -->
    <title>Arrow</title>
    <desc>Created with Sketch.</desc>
    <defs></defs>
    <g id="Symbols" stroke="none" stroke-width="1" fill="none" fill-rule="evenodd">
        <g id="Explore-Arrow-R-hover" transform="translate(-33.000000, -41.000000)" fill="#E35205" fill-rule="nonzero">
            <g id="Explore-Arrow-R" transform="translate(6.000000, 7.000000)">
                <path d="M49.2549392,35.2456897 C49.2549392,35.5387931 49.3538501,35.8807471 49.6011272,36.125 L54.8434017,41.3031609 L28.2363855,41.3031609 C27.5440096,41.3031609 27,41.8405172 27,42.5244253 C27,43.2083333 27.5440096,43.7456897 28.2363855,43.7456897 L54.8434017,43.7456897 L49.6011272,48.875 C49.3538501,49.1192529 49.2549392,49.4123563 49.2549392,49.7543103 C49.2549392,50.0962644 49.3538501,50.3893678 49.6011272,50.6336207 C50.0956814,51.1221264 50.8869681,51.1221264 51.3320669,50.6336207 L58.6514691,43.4037356 C58.7009245,43.3548851 58.7503799,43.2571839 58.7998354,43.2083333 C59.0471125,42.8663793 59.0471125,42.4267241 58.8987462,42.0847701 C58.8492908,41.9382184 58.7503799,41.7916667 58.6514691,41.6939655 L51.3320669,34.3663793 C50.8375127,33.8778736 50.0462259,33.8778736 49.6011272,34.3663793 C49.3538501,34.6106322 49.2549392,34.9037356 49.2549392,35.2456897 Z" id="Arrow" transform="translate(43.000000, 42.500000) rotate(-360.000000) translate(-43.000000, -42.500000) "></path>
            </g>
        </g>
    </g>
</svg>