<?xml version="1.0" encoding="UTF-8" standalone="no"?>
<svg width="45px" height="42px" viewBox="0 0 45 42" version="1.1" xmlns="http://www.w3.org/2000/svg" xmlns:xlink="http://www.w3.org/1999/xlink">
    <!-- Generator: Sketch 50.2 (55047) - http://www.bohemiancoding.com/sketch -->
    <title>Group</title>
    <desc>Created with Sketch.</desc>
    <defs></defs>
    <g id="Symbols" stroke="none" stroke-width="1" fill="none" fill-rule="evenodd">
        <g id="Quickbar-home" transform="translate(-998.000000, -25.000000)" fill="#FFFFFF">
            <g id="Group-16" transform="translate(352.000000, 25.000000)">
                <g id="Group-4">
                    <g id="Group" transform="translate(646.000000, 0.000000)">
                        <g id="Page-1">
                            <path d="M30.6778751,16.59777 C30.8795795,16.5886668 31.074426,16.5835 31.2598,16.5835 C35.5998,16.5835 44.2598,18.7435 44.2598,23.0835 L44.2598,28.5835 L27.8023576,28.5835 C30.1754307,26.8652845 31.7183,24.0719318 31.7183,20.917 C31.7183,19.3605609 31.3429911,17.8923169 30.6778751,16.59777 Z" id="Combined-Shape"></path>
                            <path d="M20.2598,7.5835 C20.2598,3.7235 17.1198,0.5835 13.2598,0.5835 C9.3998,0.5835 6.2598,3.7235 6.2598,7.5835 C6.2598,11.4435 9.3998,14.5835 13.2598,14.5835 C17.1198,14.5835 20.2598,11.4435 20.2598,7.5835 Z" id="Fill-3"></path>
                            <path d="M38.2598,7.5835 C38.2598,3.7235 35.1198,0.5835 31.2598,0.5835 C27.4008,0.5835 24.2598,3.7235 24.2598,7.5835 C24.2598,11.4435 27.4008,14.5835 31.2598,14.5835 C35.1198,14.5835 38.2598,11.4435 38.2598,7.5835 Z" id="Fill-5"></path>
                            <path d="M16.7171374,28.583 L0.2602,28.583 L0.2602,23.083 C0.2602,18.743 8.9202,16.583 13.2602,16.583 C13.4454648,16.583 13.6404776,16.5881607 13.8423215,16.5971004 C13.1768582,17.8918106 12.8013,19.3602925 12.8013,20.917 C12.8013,24.0716258 14.3443626,26.8647426 16.7171374,28.583 Z" id="Combined-Shape"></path>
                            <path d="M8.2598,36.667 L8.2598,41.917 L36.2598,41.917 L36.2598,36.667 C36.2598,32.012 26.9328,29.667 22.2598,29.667 C17.5878,29.667 8.2598,32.012 8.2598,36.667 Z M15.2598,20.917 C15.2598,24.784 18.3928,27.917 22.2598,27.917 C26.1278,27.917 29.2598,24.784 29.2598,20.917 C29.2598,17.049 26.1278,13.917 22.2598,13.917 C18.3928,13.917 15.2598,17.049 15.2598,20.917 Z" id="Fill-9"></path>
                        </g>
                    </g>
                </g>
            </g>
        </g>
    </g>
</svg>