<?xml version="1.0" encoding="UTF-8"?>
<svg width="33px" height="18px" viewBox="0 0 33 18" version="1.1" xmlns="http://www.w3.org/2000/svg" xmlns:xlink="http://www.w3.org/1999/xlink">
    <!-- Generator: Sketch 51.3 (57544) - http://www.bohemiancoding.com/sketch -->
    <title>icon-arrow-right-blue</title>
    <desc>Created with Sketch.</desc>
    <defs></defs>
    <g id="Page-1" stroke="none" stroke-width="1" fill="none" fill-rule="evenodd">
        <g id="icon-arrow-right-blue" fill="#008295" fill-rule="nonzero">
            <path d="M22.7724959,1.32050254 C22.7724959,1.63120902 22.873707,1.99369991 23.1267348,2.25262198 L28.4909227,7.74176979 L1.26513866,7.74176979 C0.556661012,7.74176979 3.55271368e-15,8.31139834 3.55271368e-15,9.03638012 C3.55271368e-15,9.76136191 0.556661012,10.3309905 1.26513866,10.3309905 L28.4909227,10.3309905 L23.1267348,15.7683539 C22.873707,16.0272759 22.7724959,16.3379824 22.7724959,16.7004733 C22.7724959,17.0629642 22.873707,17.3736707 23.1267348,17.6325927 C23.6327902,18.1504369 24.442479,18.1504369 24.8979289,17.6325927 L32.3875498,9.96849956 C32.4381553,9.91671515 32.4887609,9.81314632 32.5393664,9.76136191 C32.7923942,9.39887102 32.7923942,8.9328113 32.6405775,8.5703204 C32.589972,8.41496716 32.4887609,8.25961392 32.3875498,8.1560451 L24.8979289,0.3883831 C24.3918734,-0.129461033 23.5821847,-0.129461033 23.1267348,0.3883831 C22.873707,0.647305166 22.7724959,0.958011646 22.7724959,1.32050254 Z" id="Arrow"></path>
        </g>
    </g>
</svg>