<?xml version="1.0" encoding="UTF-8" standalone="no"?>
<svg width="46px" height="41px" viewBox="0 0 46 41" version="1.1" xmlns="http://www.w3.org/2000/svg" xmlns:xlink="http://www.w3.org/1999/xlink">
    <!-- Generator: Sketch 50.2 (55047) - http://www.bohemiancoding.com/sketch -->
    <title>Bus</title>
    <desc>Created with Sketch.</desc>
    <defs>
        <polygon id="path-1" points="0.0158620087 0.0708963923 35.9421328 0.0708963923 35.9421328 40.7853403 0.0158620087 40.7853403"></polygon>
        <polygon id="path-3" points="0 0.0611458314 3.93692001 0.0611458314 3.93692001 6.95680281 0 6.95680281"></polygon>
        <polygon id="path-5" points="0.0032120645 0.0611458314 3.9402449 0.0611458314 3.9402449 6.95680281 0.0032120645 6.95680281"></polygon>
    </defs>
    <g id="Symbols" stroke="none" stroke-width="1" fill="none" fill-rule="evenodd">
        <g id="Quickbar-home" transform="translate(-1244.000000, -25.000000)">
            <g id="Group-16" transform="translate(352.000000, 25.000000)">
                <g id="Group-4">
                    <g id="Bus" transform="translate(892.000000, 0.000000)">
                        <g id="Page-1">
                            <g id="Group-3" transform="translate(5.000000, 0.000000)">
                                <mask id="mask-2" fill="white">
                                    <use xlink:href="#path-1"></use>
                                </mask>
                                <g id="Clip-2"></g>
                                <path d="M33.746683,30.3384383 C32.4331546,31.6932763 26.7502638,31.9223752 26.1102812,30.9205056 C25.4701415,29.9184767 26.8171546,28.4277407 28.3938445,27.6013596 C29.896648,26.8139317 32.5913031,24.5963084 33.746683,25.5240953 C34.6101328,26.2191986 34.5298795,29.531016 33.746683,30.3384383 Z M17.9786044,24.1772231 C12.1272681,24.1772231 6.62579214,22.6284954 2.40121572,19.8045089 L2.40121572,7.10011438 C2.40121572,5.48542913 33.5567004,5.48542913 33.5567004,7.10011438 L33.5567004,19.8045089 C29.332124,22.6284954 23.830648,24.1772231 17.9786044,24.1772231 Z M23.9944559,34.790652 C23.9944559,35.176201 23.8505345,35.4884637 23.673207,35.4884637 L12.2847092,35.4884637 C12.1073031,35.4884637 11.9634603,35.176201 11.9634603,34.790652 L11.9634603,33.2339585 C11.9634603,32.8483299 12.1073031,32.5361468 12.2847092,32.5361468 L23.673207,32.5361468 C23.8505345,32.5361468 23.9944559,32.8483299 23.9944559,33.2339585 L23.9944559,34.790652 Z M10.5584384,30.9205056 C9.91837729,31.9223752 4.23564367,31.6932763 2.92290131,30.3384383 C2.13884017,29.531016 2.05929432,26.2191986 2.92290131,25.5240953 C4.07741659,24.5963084 6.77207162,26.8139317 8.27566114,27.6013596 C9.85156507,28.4277407 11.1993642,29.9184767 10.5584384,30.9205056 Z M9.51844716,2.74006591 C9.51844716,2.45592272 9.7204559,2.22690348 9.96931179,2.22690348 L25.9886044,2.22690348 C26.2374603,2.22690348 26.439469,2.45592272 26.439469,2.74006591 L26.439469,3.88603838 C26.439469,4.16930531 26.2374603,4.39832456 25.9886044,4.39832456 L9.96931179,4.39832456 C9.7204559,4.39832456 9.51844716,4.16930531 9.51844716,3.88603838 L9.51844716,2.74006591 Z M31.0925083,1.45668189 C30.1947878,1.28103408 23.7916611,0.0708565629 17.9786044,0.0708565629 C12.0636,0.0708565629 5.75990568,1.27936125 4.86375721,1.45668189 C2.18026376,1.52447158 0.0158620087,4.02990229 0.0158620087,7.10011438 L0.0158620087,32.0789845 C0.0158620087,35.0514552 2.04585328,37.4952299 4.61089258,37.7079988 L4.61089258,40.2720584 C4.61089258,40.555405 4.81282271,40.7853801 5.06175721,40.7853801 L9.87781834,40.7853801 C10.1266742,40.7853801 10.3286044,40.555405 10.3286044,40.2720584 L10.3286044,37.7234526 L25.551338,37.7234526 L25.551338,40.2720584 C25.551338,40.555405 25.7532681,40.7853801 26.0020454,40.7853801 L30.8181066,40.7853801 C31.0671197,40.7853801 31.2690498,40.555405 31.2690498,40.2720584 L31.2690498,37.7143715 C33.8706393,37.5450964 35.9421328,35.0811679 35.9421328,32.0789845 L35.9421328,7.10011438 C35.9421328,4.02902605 33.7767878,1.52367499 31.0925083,1.45668189 Z" id="Fill-1" fill="#FFFFFF" mask="url(#mask-2)"></path>
                            </g>
                            <g id="Group-6" transform="translate(0.000000, 14.000000)">
                                <mask id="mask-4" fill="white">
                                    <use xlink:href="#path-3"></use>
                                </mask>
                                <g id="Clip-5"></g>
                                <path d="M3.12322449,0.0681032258 C4.17808163,0.24031828 3.82942857,2.82595269 3.92289796,4.04425376 C4.02110204,5.32224301 3.6022449,6.8048129 2.70502041,6.95196344 C1.80795918,7.09888817 -0.307469388,3.86195269 0.0376734694,2.46571613 C0.243632653,1.63271613 2.33440816,-0.0607569892 3.12322449,0.0681032258" id="Fill-4" fill="#FFFFFF" mask="url(#mask-4)"></path>
                            </g>
                            <g id="Group-9" transform="translate(42.000000, 14.000000)">
                                <mask id="mask-6" fill="white">
                                    <use xlink:href="#path-5"></use>
                                </mask>
                                <g id="Clip-8"></g>
                                <path d="M0.816946939,0.0681032258 C-0.237828571,0.24031828 0.110742857,2.82595269 0.0171918367,4.04425376 C-0.0808489796,5.32224301 0.338008163,6.8048129 1.23515102,6.95196344 C2.13229388,7.09888817 4.24772245,3.86195269 3.90257959,2.46571613 C3.69653878,1.63271613 1.6058449,-0.0607569892 0.816946939,0.0681032258" id="Fill-7" fill="#FFFFFF" mask="url(#mask-6)"></path>
                            </g>
                        </g>
                    </g>
                </g>
            </g>
        </g>
    </g>
</svg>